<svg width="94.926" height="94.926" xmlns="http://www.w3.org/2000/svg" xmlSpace="preserve" version="1.1">

 <g>
  <title>Layer 1</title>
  <path fill="#ffffff" id="svg_2" d="m55.931,47.463l38.375,-38.373c0.826,-0.827 0.826,-2.167 0,-2.994l-5.473,-5.476c-0.397,-0.396 -0.937,-0.62 -1.498,-0.62c-0.562,0 -1.101,0.224 -1.498,0.62l-38.374,38.374l-38.374,-38.374c-0.795,-0.795 -2.202,-0.794 -2.995,0l-5.472,5.476c-0.827,0.827 -0.827,2.167 0,2.994l38.374,38.373l-38.374,38.373c-0.827,0.827 -0.827,2.167 0,2.994l5.473,5.476c0.397,0.396 0.936,0.62 1.498,0.62s1.1,-0.224 1.497,-0.62l38.374,-38.374l38.374,38.374c0.397,0.396 0.937,0.62 1.498,0.62s1.101,-0.224 1.498,-0.62l5.473,-5.476c0.826,-0.827 0.826,-2.167 0,-2.994l-38.376,-38.373z"/>
  <g id="svg_3"/>
  <g id="svg_4"/>
  <g id="svg_5"/>
  <g id="svg_6"/>
  <g id="svg_7"/>
  <g id="svg_8"/>
  <g id="svg_9"/>
  <g id="svg_10"/>
  <g id="svg_11"/>
  <g id="svg_12"/>
  <g id="svg_13"/>
  <g id="svg_14"/>
  <g id="svg_15"/>
  <g id="svg_16"/>
  <g id="svg_17"/>
 </g>
</svg>